# xmcd CD database file
#
# Track frame offsets:
#	150
#	40970
#	72912
#	104005
#	141145
#
# Disc length: 2275 seconds
#
# Revision: 0
# Processed by: cddbd v1.5.2PL0 Copyright (c) Steve Scherf et al.
# Submitted via: CDex 1.70beta3
#
DISCID=4708e105
DTITLE=Sonny Clark - Sonny Clark Quintets
DYEAR=1958
DGENRE=Jazz
TTITLE0=Royal Flush
TTITLE1=Lover
TTITLE2=Minor Meeting
TTITLE3=Eastern Incident
TTITLE4=Little Sonny
EXTD=YEAR: 1958
EXTT0=
EXTT1=
EXTT2=
EXTT3=
EXTT4=
PLAYORDER=
